<svg width="720" height="197" viewBox="0 0 720 197" fill="none" xmlns="http://www.w3.org/2000/svg">
<path d="M0 0H108.5C162.9 0 207 44.1 207 98.5V98.5C207 152.9 162.9 197 108.5 197H100C44.7715 197 0 152.228 0 97V0Z" fill="url(#paint0_linear_135_20)"/>
<path d="M167.5 90L120.801 29.7712C116.571 24.3156 109.826 21.4272 102.959 22.1302L57.4379 26.7898C52.9453 27.2497 48.7406 29.2165 45.508 32.3702L41.3202 36.4559C34.6853 42.929 33.3677 53.1129 38.1369 61.0614L39.834 63.89C42.205 67.8417 45.868 70.8533 50.2035 72.4157L99 90L111.813 95.5524C113.266 96.1819 114.788 96.6367 116.348 96.9072L153.809 103.403C171.238 106.426 176.451 128.925 162.126 139.305L124.972 166.226C110.095 177.005 89.7758 163.708 93.6981 145.76L95.2611 138.608C97.4014 128.815 91.9605 118.949 82.5352 115.534L30 96.5" stroke="black" stroke-width="10"/>
<path d="M272.534 82.2727H281.341V130.426C281.341 135.398 280.169 139.837 277.825 143.743C275.505 147.625 272.226 150.691 267.989 152.94C263.751 155.166 258.779 156.278 253.074 156.278C247.368 156.278 242.397 155.166 238.159 152.94C233.921 150.691 230.631 147.625 228.287 143.743C225.967 139.837 224.807 135.398 224.807 130.426V82.2727H233.614V129.716C233.614 133.267 234.395 136.428 235.957 139.197C237.52 141.944 239.745 144.11 242.634 145.696C245.545 147.259 249.026 148.04 253.074 148.04C257.122 148.04 260.602 147.259 263.514 145.696C266.426 144.11 268.652 141.944 270.19 139.197C271.753 136.428 272.534 133.267 272.534 129.716V82.2727ZM298.928 155V82.2727H323.502C329.184 82.2727 333.847 83.2434 337.493 85.1847C341.139 87.1023 343.838 89.7419 345.59 93.1037C347.342 96.4654 348.218 100.289 348.218 104.574C348.218 108.859 347.342 112.659 345.59 115.973C343.838 119.287 341.151 121.892 337.529 123.786C333.907 125.656 329.278 126.591 323.644 126.591H303.757V118.636H323.36C327.242 118.636 330.367 118.068 332.735 116.932C335.126 115.795 336.854 114.186 337.919 112.102C339.008 109.995 339.553 107.486 339.553 104.574C339.553 101.662 339.008 99.1169 337.919 96.9389C336.83 94.7609 335.09 93.08 332.699 91.8963C330.308 90.6889 327.148 90.0852 323.218 90.0852H307.735V155H298.928ZM333.161 122.33L351.059 155H340.831L323.218 122.33H333.161ZM364.216 82.2727L385.806 143.494H386.659L408.25 82.2727H417.483L390.778 155H381.687L354.983 82.2727H364.216ZM425.544 155H416.311L443.015 82.2727H452.106L478.811 155H469.578L447.845 93.7784H447.277L425.544 155ZM428.953 126.591H466.169V134.403H428.953V126.591ZM476.467 82.2727H486.552L506.723 116.222H507.575L527.745 82.2727H537.831L511.552 125.028V155H502.745V125.028L476.467 82.2727ZM627.062 105C626.281 102.609 625.251 100.466 623.972 98.5724C622.718 96.6548 621.214 95.0213 619.462 93.6719C617.734 92.3224 615.769 91.2926 613.567 90.5824C611.366 89.8722 608.951 89.517 606.323 89.517C602.014 89.517 598.096 90.6297 594.569 92.8551C591.041 95.0805 588.236 98.3594 586.153 102.692C584.069 107.024 583.028 112.339 583.028 118.636C583.028 124.934 584.081 130.249 586.188 134.581C588.295 138.913 591.148 142.192 594.746 144.418C598.345 146.643 602.393 147.756 606.891 147.756C611.058 147.756 614.728 146.868 617.9 145.092C621.096 143.293 623.582 140.76 625.357 137.493C627.156 134.202 628.056 130.331 628.056 125.881L630.755 126.449H608.88V118.636H636.579V126.449C636.579 132.438 635.3 137.647 632.744 142.074C630.21 146.501 626.707 149.934 622.232 152.372C617.781 154.787 612.668 155.994 606.891 155.994C600.452 155.994 594.794 154.479 589.917 151.449C585.064 148.419 581.276 144.11 578.553 138.523C575.854 132.936 574.505 126.307 574.505 118.636C574.505 112.884 575.274 107.711 576.813 103.118C578.376 98.5014 580.577 94.5715 583.418 91.3281C586.259 88.0848 589.621 85.599 593.504 83.8707C597.386 82.1425 601.659 81.2784 606.323 81.2784C610.158 81.2784 613.733 81.8584 617.048 83.0185C620.386 84.1548 623.357 85.7765 625.961 87.8835C628.589 89.9669 630.779 92.4645 632.531 95.3764C634.282 98.2647 635.49 101.473 636.153 105H627.062ZM713.026 118.636C713.026 126.307 711.641 132.936 708.871 138.523C706.101 144.11 702.301 148.419 697.472 151.449C692.642 154.479 687.126 155.994 680.924 155.994C674.721 155.994 669.205 154.479 664.375 151.449C659.546 148.419 655.746 144.11 652.976 138.523C650.206 132.936 648.821 126.307 648.821 118.636C648.821 110.966 650.206 104.337 652.976 98.75C655.746 93.1629 659.546 88.8542 664.375 85.8239C669.205 82.7936 674.721 81.2784 680.924 81.2784C687.126 81.2784 692.642 82.7936 697.472 85.8239C702.301 88.8542 706.101 93.1629 708.871 98.75C711.641 104.337 713.026 110.966 713.026 118.636ZM704.503 118.636C704.503 112.339 703.45 107.024 701.343 102.692C699.259 98.3594 696.43 95.0805 692.855 92.8551C689.304 90.6297 685.327 89.517 680.924 89.517C676.52 89.517 672.531 90.6297 668.956 92.8551C665.405 95.0805 662.576 98.3594 660.469 102.692C658.386 107.024 657.344 112.339 657.344 118.636C657.344 124.934 658.386 130.249 660.469 134.581C662.576 138.913 665.405 142.192 668.956 144.418C672.531 146.643 676.52 147.756 680.924 147.756C685.327 147.756 689.304 146.643 692.855 144.418C696.43 142.192 699.259 138.913 701.343 134.581C703.45 130.249 704.503 124.934 704.503 118.636Z" fill="white"/>
<defs>
<linearGradient id="paint0_linear_135_20" x1="76" y1="-7.51357e-07" x2="172.5" y2="188" gradientUnits="userSpaceOnUse">
<stop stop-color="white"/>
<stop offset="1" stop-color="#C1C0C0"/>
</linearGradient>
</defs>
</svg>
